<?xml version="1.0" encoding="UTF-8"?>
<svg id="Layer_1" xmlns="http://www.w3.org/2000/svg" version="1.1" viewBox="0 0 520.78 262.72">
  <!-- Generator: Adobe Illustrator 30.0.0, SVG Export Plug-In . SVG Version: 2.1.1 Build 123)  -->
  <defs>
    <style>
      .st0 {
        fill: #a6ce39;
      }

      .st1 {
        fill: #46812b;
      }
    </style>
  </defs>
  <g>
    <g>
      <polygon class="st1" points="387.32 140.32 387.32 140.32 387.32 140.32 387.32 140.32"/>
      <path class="st1" d="M397.18,110.87c12.84-11.05,27.66-17.94,33.7-14.11h0s0,0,0,0c0,0,0,0,0,0h0c3.82,6.04-3.06,20.86-14.11,33.7-8.29,9.63-22.6,16.71-29.46,9.86h0s0,0,0,0,0,0,0,0h0c-6.85-6.85.23-21.16,9.86-29.46Z"/>
      <polygon class="st1" points="387.32 140.32 387.32 140.32 387.32 140.32 387.32 140.32"/>
    </g>
    <g>
      <polygon class="st1" points="387.32 44.92 387.32 44.92 387.32 44.92 387.32 44.92"/>
      <path class="st1" d="M416.77,54.79c11.05,12.84,17.94,27.66,14.11,33.7h0s0,0,0,0c0,0,0,0,0,0h0c-6.04,3.82-20.86-3.06-33.7-14.11-9.63-8.29-16.71-22.6-9.86-29.46h0s0,0,0,0,0,0,0,0h0c6.85-6.85,21.16.23,29.46,9.86Z"/>
      <polygon class="st1" points="387.32 44.92 387.32 44.92 387.32 44.93 387.32 44.92"/>
    </g>
    <g>
      <polygon class="st0" points="497.58 30.07 497.58 30.06 497.58 30.07 497.58 30.07"/>
      <path class="st0" d="M487.71,59.52c-12.84,11.05-27.66,17.94-33.7,14.11h0s0,0,0,0c0,0,0,0,0,0h0c-3.82-6.04,3.06-20.86,14.11-33.7,8.29-9.63,22.6-16.71,29.46-9.86h0s0,0,0,0,0,0,0,0h0c6.85,6.85-.23,21.16-9.86,29.46Z"/>
      <polygon class="st0" points="497.58 30.06 497.58 30.06 497.58 30.06 497.58 30.06"/>
    </g>
    <g>
      <polygon class="st1" points="483.21 140.81 483.2 140.81 483.21 140.81 483.21 140.81"/>
      <path class="st1" d="M473.34,111.35c-12.84-11.05-27.66-17.94-33.7-14.11h0s0,0,0,0c0,0,0,0,0,0h0c-3.82,6.04,3.06,20.86,14.11,33.7,8.29,9.63,22.6,16.71,29.46,9.86h0s0,0,0,0,0,0,0,0h0c6.85-6.85-.23-21.16-9.86-29.46Z"/>
      <polygon class="st1" points="483.2 140.81 483.2 140.81 483.2 140.81 483.2 140.81"/>
    </g>
  </g>
  <g>
    <g>
      <path class="st1" d="M214.55,178.56c-1.34-1.34-3-2.02-4.93-2.02s-3.53.68-4.85,2.03c-1.32,1.34-1.99,3-1.99,4.93s.67,3.52,2,4.83c1.32,1.3,2.95,1.96,4.84,1.96s3.58-.66,4.92-1.96c1.35-1.31,2.03-2.93,2.03-4.83s-.68-3.59-2.02-4.93Z"/>
      <g>
        <path class="st0" d="M128.93,177.7h-5.3c-1.47,0-2.66,1.2-2.66,2.67v29.22c0,5.27-1.39,9.27-4.13,11.88-2.74,2.61-6.46,3.94-11.05,3.94s-8.32-1.33-11.08-3.94c-2.76-2.61-4.16-6.6-4.16-11.88v-29.22c0-1.47-1.19-2.67-2.66-2.67h-5.3c-1.47,0-2.67,1.2-2.67,2.67v30.09c0,4.1.71,7.81,2.12,11.04,1.41,3.23,3.34,5.88,5.75,7.87,2.39,1.98,5.14,3.49,8.2,4.51,3.03,1,6.33,1.51,9.8,1.51s6.76-.51,9.77-1.51c3.03-1.01,5.78-2.53,8.17-4.51,2.41-1.99,4.35-4.64,5.75-7.87,1.41-3.23,2.12-6.94,2.12-11.04v-30.09c0-1.47-1.2-2.67-2.67-2.67Z"/>
        <path class="st0" d="M171.15,201.23l-6.42-.82c-4.28-.56-7.28-1.62-8.91-3.15-.86-.81-1.36-2.11-1.37-3.59-.01-2.38,1.02-4.21,3.15-5.61,2.48-1.63,6.02-2.33,10.53-2.08,3.13.17,6.35.84,9.57,2,1.7.61,3.23,1.28,4.57,1.99,1.25.67,2.85.17,3.56-1.1l2.08-3.71c.7-1.26.3-2.86-.9-3.58-5.55-3.31-12.51-4.99-20.7-4.99-6.9,0-12.47,1.57-16.58,4.66-4.15,3.13-6.25,7.47-6.25,12.92,0,9.07,6.36,14.47,18.92,16.06l6.42.76c7.09.89,10.69,3.27,10.69,7.07,0,2.54-1.18,4.45-3.61,5.82-2.5,1.41-6.06,2.12-10.57,2.12-6.57,0-12.24-1.52-16.86-4.51-.63-.41-1.4-.56-2.12-.39-.68.15-1.27.57-1.64,1.16l-2.16,3.47c-.77,1.23-.43,2.87.76,3.64,6.11,4,13.5,6.03,21.96,6.03,7.63,0,13.77-1.62,18.26-4.82,4.54-3.24,6.85-7.65,6.85-13.1,0-9.06-6.46-14.52-19.21-16.23Z"/>
        <path class="st0" d="M284.19,177.79h-55.37c-1.47,0-2.66,1.2-2.66,2.67v4.54c0,1.47,1.19,2.66,2.66,2.66h22.54v43.9c0,1.47,1.19,2.66,2.66,2.66h5.01c1.47,0,2.66-1.19,2.66-2.66v-43.9h22.49c1.47,0,2.66-1.19,2.66-2.66v-4.54c0-1.47-1.19-2.67-2.66-2.67Z"/>
        <path class="st0" d="M346.06,177.7h-5.3c-1.47,0-2.66,1.2-2.66,2.67v3.94c-4.81-5.16-11.21-7.77-19.03-7.77s-14.75,2.81-20.15,8.36c-5.39,5.55-8.12,12.63-8.12,21.07s2.73,15.52,8.12,21.07c5.39,5.55,12.17,8.36,20.14,8.36s14.15-2.6,19.03-7.73v3.91c0,1.47,1.19,2.66,2.66,2.66h5.3c1.47,0,2.66-1.19,2.66-2.66v-51.2c0-1.47-1.19-2.67-2.66-2.67ZM338.67,205.96c0,5.56-1.75,10.24-5.2,13.91-3.44,3.66-7.92,5.52-13.31,5.52s-9.92-1.89-13.36-5.61c-3.45-3.74-5.2-8.39-5.2-13.83s1.73-10.13,5.15-13.83c3.4-3.69,7.92-5.55,13.42-5.55s9.86,1.85,13.31,5.5c3.45,3.66,5.2,8.33,5.2,13.88Z"/>
        <path class="st0" d="M483.65,177.7h-5.3c-1.47,0-2.67,1.2-2.67,2.67v3.94c-4.82-5.16-11.21-7.77-19.03-7.77s-14.75,2.81-20.14,8.36c-5.39,5.55-8.12,12.63-8.12,21.07s2.73,15.52,8.12,21.07c5.39,5.55,12.17,8.36,20.15,8.36s14.15-2.6,19.03-7.73v3.91c0,1.47,1.2,2.66,2.67,2.66h5.3c1.47,0,2.66-1.19,2.66-2.66v-51.2c0-1.47-1.19-2.67-2.66-2.67ZM476.26,205.96c0,5.56-1.75,10.24-5.2,13.91-3.44,3.66-7.92,5.52-13.31,5.52s-9.92-1.89-13.36-5.61c-3.45-3.74-5.2-8.39-5.2-13.83s1.73-10.13,5.14-13.83c3.41-3.69,7.92-5.55,13.42-5.55s9.86,1.85,13.31,5.5c3.45,3.66,5.2,8.33,5.2,13.88Z"/>
        <path class="st0" d="M209.61,197.03c-1.66,0-3.09-.42-4.37-1.29l-.83-.56v36.39c0,1.47,1.2,2.66,2.67,2.66h5.24c1.47,0,2.67-1.19,2.67-2.66v-36.47l-.83.58c-1.3.9-2.83,1.36-4.55,1.36Z"/>
        <path class="st0" d="M70.45,224.36H30.82v-44.46c0-1.47-1.2-2.66-2.67-2.66h-5.01c-.71,0-1.38.28-1.88.78-.5.5-.78,1.17-.78,1.88v51.66c0,1.47,1.2,2.66,2.67,2.66h47.31c1.47,0,2.66-1.19,2.66-2.66v-4.54c0-1.47-1.19-2.66-2.66-2.66Z"/>
        <path class="st0" d="M415.22,177.75h-4.63c-1.55,0-2.82,1.25-2.82,2.79v38.06l-36.9-39.99c-.53-.58-1.29-.91-2.08-.91h-4.97c-1.55,0-2.82,1.25-2.82,2.79v51.04c0,1.54,1.26,2.79,2.82,2.79h4.64c1.55,0,2.81-1.25,2.81-2.79l.05-37.77,36.85,39.71c.53.57,1.28.9,2.07.9h4.97c1.55,0,2.82-1.25,2.82-2.79v-51.04c0-1.54-1.26-2.79-2.82-2.79Z"/>
      </g>
    </g>
    <g>
      <path class="st0" d="M167.98,86.32c6.37-6.31,14.38-9.46,24.01-9.46s17.64,3.16,24.04,9.46c6.4,6.31,9.6,14.19,9.6,23.64s-3.2,17.33-9.6,23.64c-6.4,6.31-14.41,9.46-24.04,9.46s-17.63-3.15-24.01-9.46c-6.38-6.31-9.56-14.19-9.56-23.64s3.19-17.33,9.56-23.64ZM191.99,87.16c-6.42,0-11.76,2.15-16.02,6.45s-6.39,9.75-6.39,16.35,2.13,12.11,6.39,16.42c4.26,4.31,9.6,6.45,16.02,6.45s11.7-2.16,15.98-6.49c4.28-4.32,6.42-9.78,6.42-16.38s-2.14-12.05-6.42-16.35c-4.28-4.3-9.61-6.45-15.98-6.45Z"/>
      <path class="st0" d="M266.9,76.86c3.61,0,6.74.41,9.39,1.23,1.27.39,2.04,1.67,1.72,2.96l-1.45,5.85c-.35,1.39-1.8,2.2-3.15,1.71-2.51-.92-5.32-1.38-8.45-1.38-4.9,0-8.88,1.74-11.94,5.22-3.05,3.48-4.58,8.11-4.58,13.91v32.93c0,1.35-1.1,2.45-2.45,2.45h-6.01c-1.35,0-2.45-1.1-2.45-2.45v-58.64c0-1.35,1.1-2.45,2.45-2.45h5.87c1.35,0,2.45,1.1,2.45,2.45v5.91c2.23-3.12,4.95-5.52,8.16-7.19,3.21-1.67,6.69-2.51,10.43-2.51Z"/>
      <path class="st0" d="M346.27,141.73h-6.08c-1.35,0-2.45-1.1-2.45-2.45v-6.05c-5.62,6.56-13.09,9.83-22.4,9.83s-16.55-3.13-22.64-9.4c-6.09-6.26-9.13-14.17-9.13-23.7s3.04-17.44,9.13-23.71c6.09-6.26,13.63-9.4,22.64-9.4s16.87,3.3,22.4,9.9v-6.11c0-1.35,1.1-2.45,2.45-2.45h6.08c1.35,0,2.45,1.1,2.45,2.45v58.64c0,1.35-1.1,2.45-2.45,2.45ZM316.62,87.16c-6.51,0-11.78,2.19-15.82,6.56-4.03,4.37-6.05,9.79-6.05,16.25s2.04,11.84,6.12,16.25c4.08,4.41,9.33,6.62,15.75,6.62s11.6-2.17,15.68-6.52c4.08-4.35,6.12-9.8,6.12-16.35s-2.04-11.99-6.12-16.32c-4.08-4.32-9.31-6.49-15.68-6.49Z"/>
      <path class="st0" d="M73.72,115.17H31.48v24.06c0,1.35-1.1,2.45-2.45,2.45h-5.68c-1.35,0-2.45-1.1-2.45-2.45v-59.17c0-1.35,1.1-2.45,2.45-2.45h53.8c1.35,0,2.45,1.1,2.45,2.45v5.78c0,1.35-1.1,2.45-2.45,2.45H31.48v16.91h42.24c1.35,0,2.45,1.1,2.45,2.45v5.08c0,1.35-1.1,2.45-2.45,2.45Z"/>
      <path class="st0" d="M149.19,141.67h-54.18c-1.35,0-2.45-1.1-2.45-2.45v-59.17c0-1.35,1.09-2.45,2.44-2.45h5.74c1.35,0,2.45,1.09,2.45,2.45v51.53h46c1.35,0,2.45,1.1,2.45,2.45v5.19c0,1.35-1.1,2.45-2.45,2.45Z"/>
    </g>
  </g>
</svg>